<svg width="800" height="800" viewBox="0 0 800 800" fill="none" xmlns="http://www.w3.org/2000/svg">
<path d="M291 111.886C257 125.619 224.867 144.019 202.333 162.419C189.533 172.953 162.867 200.686 151.933 214.819C126.733 247.619 107.133 288.019 97.8 326.019C91.6666 350.819 90.0666 364.686 89.4 398.686L88.7333 431.086L93.4 435.753C99 441.353 103.267 441.753 108.6 437.219L112.333 434.019L112.467 404.819C112.6 371.886 114.333 358.153 121.8 329.753C135.4 277.486 161.4 233.619 201 195.886C216.467 181.219 223.4 175.753 241 164.019C257 153.486 275.533 143.886 295.667 135.753C315.533 127.619 316.333 127.219 318.733 123.086C321.933 117.753 321.533 112.819 317.667 109.086C313 104.419 308.067 104.953 291 111.886Z" fill="black"/>
<path d="M478.733 108.686C474.867 112.953 473.8 117.353 475.667 121.886C477.667 126.553 481.533 128.953 500.333 137.086C566.733 165.753 611.533 203.753 645.133 260.02C659.8 284.953 673.933 323.22 679 352.286C682.067 369.753 683.933 400.686 682.867 417.353L682.067 432.286L686.067 436.419C691.267 441.486 695.667 441.486 701.267 436.553L705.667 432.686L706.067 407.486C706.333 393.753 705.8 375.753 705 367.753C696.733 290.153 658.2 218.553 596.733 167.086C570.2 144.82 543.4 128.686 506.733 113.22C487.267 104.953 482.867 104.286 478.733 108.686Z" fill="black"/>
<path d="M388.067 112.42C371.267 115.886 356.467 131.22 353.8 147.886C351.667 160.153 360.333 168.286 370.867 163.886C374.2 162.42 375.8 160.82 376.333 158.153C379.267 144.02 382.867 138.953 391.8 136.153C402.333 133.086 413.933 139.886 417 150.953C420.2 162.953 414.867 171.886 399.8 179.486C387.8 185.486 386.333 188.686 386.333 208.686V224.42H371C348.867 224.42 348.6 224.686 340.867 246.82C332.2 271.086 322.6 286.553 306.867 301.886C284.2 323.62 263.667 333.22 212.733 345.753C183.4 352.953 172.733 357.353 163.133 366.686C153.533 375.753 151.667 380.953 151.667 398.286C151.667 410.553 152.067 413.486 154.333 417.086C160.333 426.82 169.533 426.286 183.4 415.086C194.6 406.153 221.933 390.686 288.333 356.42C315 342.553 330.067 334.286 354.2 319.886C377.533 306.02 383.667 303.753 397.667 303.886C411.4 304.02 419.8 307.486 450.2 325.62C470.733 337.886 485.267 345.753 533.667 371.086C582.2 396.42 601 406.953 608.467 412.686C624.733 425.086 628.6 426.42 635.8 422.153C641.8 418.553 643.667 413.086 643.667 398.82C643.667 383.22 640.6 376.02 630.067 366.42C619.533 356.82 611.4 353.353 580.867 345.886C565.933 342.286 549.133 337.62 543.667 335.753C501.133 320.42 470.6 291.486 455.8 252.953C447.533 231.353 446.067 228.42 443.133 226.286C441.133 224.953 436.2 224.42 424.733 224.42H409V213.22V201.886L417.133 197.62C426.467 192.553 432.867 185.62 437.933 175.086C440.867 169.086 441.533 165.886 441.533 157.086C441.533 144.553 437.933 135.086 429.667 125.886C420.067 115.353 402.067 109.486 388.067 112.42Z" fill="black"/>
<path d="M235 391.353C232.067 392.819 224.2 396.953 217.533 400.686L205.4 407.353L204.467 415.886C203.4 426.819 205.267 433.886 210.333 438.286C219.4 445.753 233 442.953 238.333 432.553C240.733 427.619 241 425.086 240.733 407.886L240.333 388.686L235 391.353Z" fill="black"/>
<path d="M553.267 409.353C553.667 433.086 554.6 435.753 563.8 440.553C569.933 443.619 572.867 443.753 579 441.219C586.467 438.019 589 432.419 589 418.953V407.486L571.933 398.019C562.467 392.686 554.333 388.419 553.8 388.419C553.267 388.419 553 397.886 553.267 409.353Z" fill="black"/>
<path d="M263.267 402.02C258.067 406.02 258.067 413.353 263.267 418.153C265.667 420.286 274.067 420.42 397.667 420.553L529.533 420.686L532.6 417.22C536.6 412.553 536.467 407.753 532.333 403.753L529.133 400.42H397.267C293.933 400.42 265 400.82 263.267 402.02Z" fill="black"/>
<path d="M315.133 490.553C311.133 494.686 310.333 503.22 313.667 508.02C316.733 512.286 324.333 514.153 329.8 511.753C335 509.62 337 506.286 337 499.753C337 488.686 323 482.82 315.133 490.553Z" fill="black"/>
<path d="M5.93333 489.353C5.4 489.753 5 513.753 5 542.686V595.086H15.6667H26.3333V573.086V551.086H46.3333H66.3333V541.086V531.086H46.3333H26.3333V520.42V509.753H50.3333H74.3333V499.086V488.42H40.6C21.9333 488.42 6.33333 488.82 5.93333 489.353Z" fill="black"/>
<path d="M227.667 541.753V595.086H238.333H249V578.42V561.753H262.333H275.667V578.42V595.086H286.333H297V555.086V514.953L286.733 515.353L276.333 515.753L275.933 528.82L275.533 541.886L261.933 541.486L248.333 541.086V515.086V489.086L238.067 488.686L227.667 488.286V541.753Z" fill="black"/>
<path d="M534.333 541.753V595.086H545.667H557V573.086V551.086H571.533C588.867 551.086 587.667 549.086 587.667 576.02V595.086H599H610.333V566.02C610.333 549.886 609.933 525.886 609.4 512.686L608.6 488.42H598.2H587.8L587.4 509.353L587 530.42L572.067 530.82L557.133 531.22L556.733 510.153L556.333 489.086L545.4 488.686L534.333 488.286V541.753Z" fill="black"/>
<path d="M699.667 541.753V595.086H709.667C719.267 595.086 719.667 594.953 719.667 592.02V588.82L727.133 592.686C731.933 594.953 736.867 596.42 740.333 596.42C754.6 596.42 767.8 586.953 772.467 573.62C775.933 563.486 775.8 545.886 772.067 537.753C762.733 516.953 741.267 509.353 725.4 521.353L721 524.553V506.553V488.42H710.333H699.667V541.753ZM745.8 538.82C755.933 546.953 755.267 569.62 744.867 575.086C738.467 578.553 727.533 575.753 723.133 569.486C721.667 567.353 721 563.353 721 556.02C721 545.886 721.133 545.353 725.533 540.953C729.4 537.086 731 536.42 736.6 536.42C740.6 536.42 744.067 537.353 745.8 538.82Z" fill="black"/>
<path d="M777.4 491.753C770.333 496.686 771.267 508.686 779 511.886C791.533 517.086 801.8 501.753 791.533 493.219C787 489.353 781.667 488.819 777.4 491.753ZM790.867 496.686C793.667 500.686 793.533 503.886 790.333 507.086C786.467 510.953 780.467 510.553 777.133 506.286C773.667 501.886 773.667 499.753 777 496.419C780.733 492.686 788.2 492.819 790.867 496.686Z" fill="black"/>
<path d="M780.6 497.486C777.933 500.419 777.667 503.219 779.933 505.486C785.133 510.686 793.267 503.219 788.333 497.753C785.4 494.419 783.4 494.419 780.6 497.486ZM786.333 500.953C786.333 502.019 785.8 503.219 785.133 503.753C783.533 504.686 781.933 502.153 783 500.419C784.2 498.419 786.333 498.819 786.333 500.953Z" fill="black"/>
<path d="M178.867 516.286C156.6 522.02 149.533 545.486 166.467 558.02C168.333 559.486 174.6 561.753 180.333 563.22C193.667 566.686 195.667 567.753 195.667 571.753C195.667 579.22 183.4 580.42 173 574.02C165.267 569.22 162.6 569.353 158.333 574.686C154.867 579.086 154.867 579.486 159.933 585.086C166.867 593.086 173.4 595.753 185.667 595.753C198.467 595.753 205.667 592.553 211.533 584.42C216.333 577.886 217.533 571.486 215.667 564.286C213 554.553 208.6 551.486 187.133 544.82C177.8 542.02 174.867 538.686 179 535.62C182.867 532.553 191.933 534.02 197.667 538.42L202.467 542.02L208.333 538.42C215.133 534.42 215.667 532.42 211.133 526.42C205.133 518.686 189.267 513.62 178.867 516.286Z" fill="black"/>
<path d="M381 516.819C366.867 520.019 355.667 529.486 350.2 543.086C346.867 551.353 347.933 562.953 352.867 573.086C368.2 604.019 411.533 604.286 427.933 573.353C430.467 568.686 431 565.619 431 555.753C431 541.619 428.733 536.153 419.133 527.353C408.333 517.353 395 513.753 381 516.819ZM401.133 538.686C409.933 543.886 413.133 558.553 407.267 567.219C396.067 584.153 370.333 576.286 370.333 556.019C370.333 546.153 375.8 538.286 384.333 536.019C388.467 534.953 397 536.286 401.133 538.686Z" fill="black"/>
<path d="M443.667 555.086V595.086H453.667H463.667V574.686L463.8 554.42L483.8 574.686C503.667 594.953 503.933 595.086 509.8 595.086H515.667L515.4 555.353L515 515.753L504.733 515.353L494.333 514.953L494.2 535.353V555.753L474.6 535.353C455.4 515.486 454.867 515.086 449.4 515.086H443.667V555.086Z" fill="black"/>
<path d="M621.533 516.953C621.133 518.153 621 531.22 621.267 546.02C621.933 576.42 622.467 579.086 631.133 587.353C646.733 602.286 675.533 598.286 685.4 580.02C688.2 574.686 688.333 572.953 688.333 545.086V515.753L678.067 515.353L667.667 514.953V541.62V568.153L664.2 572.286C659.533 577.886 651.133 578.153 646.2 572.953C643.133 569.62 643 568.82 642.333 542.686L641.667 515.753L631.933 515.353C624.2 515.086 622.2 515.353 621.533 516.953Z" fill="black"/>
<path d="M87 537.353C81.2667 548.953 72.8667 566.686 68.2 576.686L59.8 595.086H70.8667H81.9334L85.4 586.953C88.8667 578.953 89 578.82 93.1334 579.62C95.4 580.02 103 580.42 109.8 580.42H122.333L125.933 587.753L129.533 595.086H140.467H151.533L146.467 584.02C143.667 578.02 139.533 569.753 137.4 565.753C135.267 561.753 129.133 548.953 123.8 537.353L113.933 516.42H105.667H97.2667L87 537.353ZM109.4 553.086C111.4 557.22 113 560.82 113 561.086C113 561.486 109.4 561.753 105 561.753C100.6 561.753 97 561.486 97 561.22C97 559.486 103.8 545.753 104.733 545.753C105.267 545.753 107.4 549.086 109.4 553.086Z" fill="black"/>
<path d="M323.4 517.486L314.333 517.886V556.42V595.086H324.333H334.333V556.553C334.333 535.22 333.933 517.753 333.4 517.486C332.733 517.22 328.333 517.22 323.4 517.486Z" fill="black"/>
<path d="M225.667 633.086C223.667 635.086 222.333 637.886 222.333 640.286C222.333 647.353 227.533 651.486 249.533 661.486C296.867 683.22 336.733 692.953 385.667 694.686C431.267 696.286 470.467 690.02 513 674.153C533.4 666.553 564.067 652.42 568.067 648.686C575.533 641.62 571 629.753 560.733 629.753C558.6 629.753 550.2 632.82 541.933 636.553C497 657.22 463.267 667.086 425.133 670.953C368.867 676.82 305.933 664.153 248.733 635.62C235.267 628.82 230.333 628.286 225.667 633.086Z" fill="black"/>
</svg>
